<?xml version="1.0" encoding="UTF-8" standalone="no"?>
<!-- Created with Inkscape (http://www.inkscape.org/) -->

<svg
   width="313"
   height="49"
   viewBox="0 0 82.814581 12.964591"
   version="1.1"
   id="svg1"
   inkscape:version="1.4.2 (ebf0e940d0, 2025-05-08)"
   sodipodi:docname="logo.svg"
   inkscape:export-filename="logo.png"
   inkscape:export-xdpi="96"
   inkscape:export-ydpi="96"
   xmlns:inkscape="http://www.inkscape.org/namespaces/inkscape"
   xmlns:sodipodi="http://sodipodi.sourceforge.net/DTD/sodipodi-0.dtd"
   xmlns="http://www.w3.org/2000/svg"
   xmlns:svg="http://www.w3.org/2000/svg">
  <sodipodi:namedview
     id="namedview1"
     pagecolor="#ffffff"
     bordercolor="#000000"
     borderopacity="0.25"
     inkscape:showpageshadow="2"
     inkscape:pageopacity="0.0"
     inkscape:pagecheckerboard="0"
     inkscape:deskcolor="#d1d1d1"
     inkscape:document-units="mm"
     inkscape:zoom="3.543131"
     inkscape:cx="155.37106"
     inkscape:cy="63.22092"
     inkscape:window-width="1920"
     inkscape:window-height="1011"
     inkscape:window-x="0"
     inkscape:window-y="0"
     inkscape:window-maximized="1"
     inkscape:current-layer="layer1" />
  <defs
     id="defs1" />
  <g
     inkscape:label="Camada 1"
     inkscape:groupmode="layer"
     id="layer1">
    <path
       d="m 4.0611028,5.9189961 h 4.886588 V 2.691968 q 0,-0.8982448 -0.2419103,-1.1477573 Q 8.4638702,1.2780638 7.5284838,1.194893 V 0.878844 h 4.4834042 v 0.316049 q -0.935386,0.083167 -1.177297,0.3493177 -0.24191,0.2495125 -0.24191,1.1477573 v 7.38557 q 0,0.88161 0.258038,1.147757 0.258038,0.266147 1.161169,0.349318 v 0.316049 H 7.5284838 V 11.574613 Q 8.4638702,11.508081 8.7057805,11.225295 8.9476908,10.942514 8.9476908,9.8945618 V 6.6508993 h -4.886588 v 3.4266387 q 0,0.88161 0.2580377,1.147757 0.2580376,0.266147 1.1611693,0.349318 v 0.316049 H 0.99690568 V 11.574613 Q 1.9322921,11.508081 2.1742024,11.225295 2.4161127,10.942514 2.4161127,9.8945618 V 2.691968 q 0,-0.8982448 -0.2419103,-1.1477573 Q 1.9322921,1.2780638 0.99690568,1.194893 V 0.878844 H 5.4803098 V 1.194893 Q 4.5449234,1.2780597 4.3030131,1.5442107 4.0611028,1.7937232 4.0611028,2.691968 Z M 13.269833,5.3534347 q -0.354803,0 -0.67735,0.049906 V 5.1538283 q 1.128915,-0.3326833 2.49974,-0.9148792 l 0.06451,0.049906 v 5.9051279 q 0,0.898246 0.193528,1.147759 0.209656,0.232878 0.999896,0.299414 v 0.249513 H 12.52797 v -0.249513 q 0.838623,-0.04991 1.048278,-0.299414 0.225783,-0.249513 0.225783,-1.147759 V 6.3348574 q 0,-0.5489271 -0.129018,-0.7651719 -0.112892,-0.2162437 -0.403184,-0.2162437 z m 1.064405,-4.82390841 q 0.354801,0 0.596712,0.24951251 0.24191,0.2495125 0.24191,0.5988302 0,0.3659511 -0.24191,0.6154636 -0.241911,0.2328781 -0.596712,0.2328781 -0.338674,0 -0.580585,-0.2495125 -0.225782,-0.2495125 -0.225782,-0.5988292 0,-0.3493177 0.24191,-0.5988302 0.24191,-0.24951251 0.564457,-0.24951251 z M 16.753335,1.5275763 V 1.2614294 q 1.596608,-0.39921977 2.564249,-0.73190311 l 0.06452,0.0332708 V 10.493395 q 0,0.682001 0.209655,0.898245 0.225783,0.19961 0.999896,0.249512 v 0.249513 h -3.806056 v -0.249513 q 0.757986,-0.06654 0.999897,-0.299414 0.24191,-0.232879 0.24191,-0.898246 V 2.508995 q 0,-0.5821959 -0.145146,-0.7984396 -0.145147,-0.2162448 -0.532203,-0.2162448 -0.322547,0 -0.596712,0.033271 z m 9.353853,10.5294267 -0.06451,-0.04991 V 10.94251 q -0.774113,1.114489 -2.064301,1.114489 -1.33857,0 -2.161065,-0.981415 -0.822496,-0.99805 -0.822496,-2.5949305 0,-1.7632218 0.983769,-2.99415 0.983769,-1.2475625 2.370721,-1.2475625 0.870877,0 1.693372,0.7152698 V 2.3592806 q 0,-0.5156594 -0.145146,-0.6820011 -0.145146,-0.1663416 -0.596712,-0.1663416 -0.225783,0 -0.354802,0.016635 V 1.2614264 q 1.467589,-0.39921982 2.370721,-0.73190315 l 0.08063,0.0332708 V 9.994367 q 0,0.582196 0.129019,0.765172 0.145146,0.182975 0.580585,0.182975 0.08063,0 0.370928,-0.01663 v 0.266145 z m -1.499845,-0.864977 q 0.61284,0 1.016024,-0.349316 0.419311,-0.365952 0.419311,-0.648734 V 6.368118 q 0,-0.6653656 -0.499948,-1.1643906 -0.499948,-0.499025 -1.145042,-0.499025 -0.919259,0 -1.467589,0.8483417 -0.54833,0.8483427 -0.54833,2.2622468 0,1.5303438 0.612839,2.4618561 0.61284,0.914879 1.612735,0.914879 z m 4.435032,-0.914879 q 0,-0.2994144 0.06452,-0.5489269 0.06451,-0.2661469 0.225783,-0.4823906 0.161273,-0.2328781 0.30642,-0.4158542 0.145146,-0.182976 0.435438,-0.3659521 0.290293,-0.1996094 0.48382,-0.3160489 0.193529,-0.133073 0.580585,-0.2994146 0.403184,-0.1829761 0.612839,-0.2661469 0.209657,-0.099802 0.661222,-0.2827812 0.451567,-0.1829761 0.661222,-0.2661469 V 6.0188013 q 0,-1.3806364 -1.225679,-1.3806364 -0.483821,0 -0.822496,0.2495125 -0.338673,0.2328791 -0.338673,0.5655625 0,0.1330729 0.03226,0.365951 0.04839,0.2328782 0.04839,0.2994156 0,0.2827803 -0.225784,0.499024 -0.209655,0.1996104 -0.499947,0.1996104 -0.274166,0 -0.483821,-0.2162437 -0.209656,-0.2162448 -0.209656,-0.499025 0,-0.7818063 0.774113,-1.314099 0.790241,-0.5489281 1.935283,-0.5489281 1.322442,0 1.82239,0.6653667 0.499949,0.6487323 0.499949,1.9961 v 3.2436622 q 0,0.548927 0.09676,0.765172 0.112891,0.19961 0.387056,0.19961 0.338674,0 0.709604,-0.316049 v 0.432488 q -0.419312,0.482391 -0.741859,0.665367 -0.306419,0.166341 -0.709603,0.166341 -0.499948,0 -0.741859,-0.282781 -0.225782,-0.28278 -0.290292,-0.931512 -1.386952,1.214293 -2.354594,1.214293 -0.741858,0 -1.225679,-0.499025 -0.467693,-0.499025 -0.467693,-1.280831 z M 33.074214,9.8446597 V 7.4327055 q -1.451462,0.5489271 -2.032047,1.0645865 -0.580585,0.5156594 -0.580585,1.2475625 0,0.6820015 0.322547,1.0146845 0.322547,0.332683 0.693477,0.332683 0.54833,0 1.177296,-0.382586 0.258038,-0.149708 0.338675,-0.316049 0.08063,-0.166342 0.08063,-0.5489273 z M 50.717528,6.3348503 q 0,0.7485375 -0.161274,1.4638063 -0.161273,0.7152698 -0.596711,1.4804406 -0.435439,0.7651718 -1.112788,1.3307338 -0.677349,0.548928 -1.806263,0.914879 -1.112788,0.365952 -2.531995,0.365952 h -4.580169 v -0.316049 q 0.91926,-0.06653 1.16117,-0.332684 0.258038,-0.266146 0.258038,-1.164391 v -7.38557 q 0,-0.9148792 -0.24191,-1.1643917 Q 40.879842,1.2780638 39.928328,1.194893 V 0.878844 h 4.354386 q 1.467589,0 2.612632,0.3493167 1.161169,0.3326833 1.854645,0.8816114 0.709604,0.5322928 1.161169,1.2808303 0.467693,0.7319041 0.628967,1.4471729 0.177401,0.7152688 0.177401,1.497075 z m -1.757881,0.1164386 q 0,-0.7152688 -0.145146,-1.3640011 Q 48.685481,4.4219211 48.33068,3.7565544 47.975878,3.0745534 47.41142,2.5921628 46.846963,2.1097721 45.927704,1.8103565 45.008445,1.4943076 43.831148,1.4943076 q -0.499948,0 -0.677349,0.1330739 -0.161273,0.1330729 -0.161273,0.5156584 v 8.4501571 q 0,0.39922 0.177401,0.548927 0.177401,0.133073 0.661221,0.133073 5.128499,0 5.128499,-4.8239081 z m 2.725521,3.8258581 q 0,-0.2994144 0.0645,-0.5489269 0.06452,-0.2661469 0.225783,-0.4823906 0.161274,-0.2328781 0.306421,-0.4158542 0.145146,-0.182976 0.435438,-0.3659521 0.290293,-0.1996094 0.48382,-0.3160489 0.193529,-0.133073 0.580585,-0.2994146 0.403184,-0.1829761 0.612839,-0.2661469 0.209656,-0.099802 0.661222,-0.2827812 0.451566,-0.1829761 0.661222,-0.2661469 V 6.0188013 q 0,-1.3806364 -1.225679,-1.3806364 -0.483821,0 -0.822496,0.2495125 -0.338673,0.2328791 -0.338673,0.5655625 0,0.1330729 0.03226,0.365951 0.04838,0.2328782 0.04838,0.2994156 0,0.2827803 -0.225783,0.499024 -0.209656,0.1996104 -0.499948,0.1996104 -0.274165,0 -0.48382,-0.2162437 -0.209656,-0.2162448 -0.209656,-0.499025 0,-0.7818063 0.774113,-1.314099 0.79024,-0.5489281 1.935283,-0.5489281 1.322442,0 1.82239,0.6653667 0.499948,0.6487323 0.499948,1.9961 v 3.2436622 q 0,0.548927 0.09676,0.765172 0.112892,0.19961 0.387057,0.19961 0.338674,0 0.709603,-0.316049 v 0.432488 q -0.419311,0.482391 -0.741858,0.665367 -0.30642,0.166341 -0.709603,0.166341 -0.499949,0 -0.741859,-0.282781 -0.225783,-0.28278 -0.290292,-0.931512 -1.386952,1.214293 -2.354594,1.214293 -0.741858,0 -1.225679,-0.499025 -0.467693,-0.499025 -0.467692,-1.280831 z M 55.717007,9.8446597 V 7.4327055 q -1.451462,0.5489271 -2.032047,1.0645865 -0.580585,0.5156594 -0.580585,1.2475625 0,0.6820015 0.322547,1.0146845 0.322547,0.332683 0.693477,0.332683 0.54833,0 1.177296,-0.382586 0.258038,-0.149708 0.338675,-0.316049 Q 55.717,10.227245 55.717,9.8446597 Z M 58.458646,5.2702638 V 4.9874826 Q 59.65207,4.6215315 60.684221,4.2389451 l 0.112891,0.033271 V 5.586315 q 0.822495,-0.7984396 1.290189,-1.0645864 0.48382,-0.2827813 1.048278,-0.2827813 0.887004,0 1.386952,0.6653667 0.516076,0.6487323 0.516076,1.8297583 v 3.8092237 q 0,0.615465 0.193528,0.831708 0.193528,0.199611 0.79024,0.266147 v 0.249513 h -3.35449 v -0.249513 q 0.61284,-0.04991 0.806368,-0.332683 0.209655,-0.282781 0.209655,-1.064586 V 6.7673409 q 0,-1.6135146 -1.177296,-1.6135146 -0.403184,0 -0.741859,0.1996104 -0.338674,0.182976 -0.919258,0.7485375 v 4.6741998 q 0,0.449123 0.225783,0.632099 0.225782,0.182976 0.838621,0.232878 v 0.249513 h -3.418998 v -0.249513 q 0.612839,-0.04991 0.806368,-0.282781 0.193527,-0.249512 0.193527,-0.964781 V 6.2683159 q 0,-0.6154646 -0.129018,-0.8317084 -0.129018,-0.2328781 -0.467693,-0.2328781 -0.30642,0 -0.435439,0.066541 z m 8.724904,0.083167 q -0.354801,0 -0.677348,0.049906 V 5.1538243 q 1.128914,-0.3326834 2.499739,-0.9148792 l 0.06451,0.049906 v 5.9051279 q 0,0.898246 0.193528,1.147759 0.209656,0.232878 0.999896,0.299414 v 0.249513 h -3.822183 v -0.249513 q 0.838623,-0.04991 1.048278,-0.299414 0.225783,-0.249513 0.225783,-1.147759 V 6.3348533 q 0,-0.5489271 -0.129019,-0.7651718 Q 67.473842,5.3534377 67.18355,5.3534377 Z m 1.064406,-4.82390837 q 0.354801,0 0.596712,0.2495125 0.24191,0.24951247 0.24191,0.59883017 0,0.3659511 -0.24191,0.6154636 -0.241911,0.2328781 -0.596712,0.2328781 -0.338675,0 -0.580585,-0.2495125 -0.225783,-0.2495125 -0.225783,-0.5988292 0,-0.3493177 0.241911,-0.59883017 0.24191,-0.2495125 0.564457,-0.2495125 z m 3.660902,6.75347087 q 0.03226,1.0479532 0.274165,1.813125 0.241911,0.7485375 0.628967,1.1311227 0.387056,0.365952 0.774112,0.532294 0.403184,0.149707 0.838623,0.149707 0.774113,0 1.33857,-0.39922 0.580585,-0.399221 1.16117,-1.3473672 l 0.258038,0.1164385 q -0.499948,1.3473677 -1.386953,2.0626377 -0.887004,0.715268 -2.032046,0.715268 -1.386952,0 -2.209447,-0.99805 -0.806368,-1.014684 -0.806368,-2.7280025 0,-1.8463928 0.935386,-2.9608813 0.951514,-1.131124 2.435231,-1.131124 1.225679,0 1.903027,0.7651719 0.677349,0.7485375 0.85475,2.2788802 z m 0.03226,-0.5322927 h 3.28998 Q 75.069821,5.6694796 74.731147,5.2536254 74.392472,4.8377712 73.650615,4.8377712 q -1.451462,0 -1.7095,1.9129292 z M 77.343771,1.5275722 V 1.2614254 Q 78.940378,0.86220557 79.90802,0.52952223 l 0.06451,0.0332708 V 10.493391 q 0,0.682001 0.209655,0.898245 0.225784,0.19961 0.999896,0.249512 v 0.249513 H 77.37603 v -0.249513 q 0.757986,-0.06654 0.999896,-0.299414 0.24191,-0.232879 0.24191,-0.898246 V 2.5089909 q 0,-0.5821958 -0.145146,-0.7984396 -0.145146,-0.2162448 -0.532203,-0.2162448 -0.322547,0 -0.596712,0.033271 z"
       id="text1"
       style="font-size:16.3788px;font-family:FreeSerif;-inkscape-font-specification:FreeSerif;stroke-width:1.36489"
       aria-label="Hilda Daniel" />
  </g>
</svg>
